# xmcd
#
# Track frame offsets:
#	183
#	12128
#	28755
#	40430
#	52123
#	72528
#	85378
#	100600
#	113908
#	128805
#
# Disc length: 1847 seconds
#
# Revision: 0
# Processed by: cddbd v1.5.2PL0 Copyright (c) Steve Scherf et al.
# Submitted via: EasyCDDAExtractor 12.0.0.1
#
DISCID=8707350a
DTITLE=Yolandita Monge - Soy Ante Todo Mujer
DYEAR=1977
DGENRE=Latin
TTITLE0=Dejame Que Pague Yo
TTITLE1=En El Mismo Lugar
TTITLE2=De Igual A Igual
TTITLE3=Ahora Que El Tiempo Ha Pasado
TTITLE4=Es Temprano Todavia
TTITLE5=Soy Ante Todo Mujer
TTITLE6=Yo Soy Una Mas
TTITLE7=Un Gran Amor Lo Hacen Dos
TTITLE8=Fui Solo Un Capricho
TTITLE9=Entregue Mi Vida
EXTD=
EXTT0=
EXTT1=
EXTT2=
EXTT3=
EXTT4=
EXTT5=
EXTT6=
EXTT7=
EXTT8=
EXTT9=
PLAYORDER=
